<svg xmlns="http://www.w3.org/2000/svg" version="1.1" xmlns:xlink="http://www.w3.org/1999/xlink" xmlns:svgjs="http://svgjs.dev/svgjs" width="100%" height="100%" viewBox="0 0 1000 600"><rect width="1000" height="600" x="0" y="0" fill="orange"/><g><circle r="166.66666666666666" cx="318.3788401285807" cy="340.6010657901006" fill="#fcedda" transform="matrix(0.8239286363008822,0,0,0.8239286363008821,0,19.36902608481239)"/><path d="M265.94862171516957 273.7838430829707L221.9114512949003 410.9547244506791Q220.98217923444915 413.355343940178 219.40757935424023 414.49112090295165Q217.8329794740313 415.601084752935 215.7679304508065 415.601084752935Q213.72869454037198 415.601084752935 212.15409466016305 414.56856024132253Q210.57949477995413 413.56184884250047 209.83091450903515 411.7033047215981Q209.08233423811615 409.8447606006958 209.83091450903515 407.41832799840665L209.83091450903515 407.41832799840665L254.07458983162684 270.24744663069816Q255.00386189207802 267.84682714119936 256.65590111065785 266.73686329121597Q258.33375344202807 265.60108632844236 260.2955500140916 265.60108632844236Q262.23153347336483 265.60108632844236 263.8319464663641 266.63361084005476Q265.406546346573 267.66613535166715 266.0518741663308 269.52467947256946Q266.69720198608854 271.3832235934718 265.94862171516957 273.7838430829707L265.94862171516957 273.7838430829707ZM357.94655569983513 404.63051181705316L288.8190396473844 404.63051181705316Q284.74056782651536 404.63051181705316 282.59807946491964 402.4880234554574Q280.45559110332385 400.34553509386166 280.45559110332385 396.26706327299263L280.45559110332385 396.26706327299263L280.45559110332385 281.966599837499Q280.45559110332385 277.88812801663 282.59807946491964 275.74563965503427Q284.74056782651536 273.6031512934385 288.8190396473844 273.6031512934385L288.8190396473844 273.6031512934385L357.94655569983513 273.6031512934385Q361.1215685730433 273.6031512934385 362.7994209044134 275.2810036248087Q364.4514601229933 276.9588559561788 364.4514601229933 279.9273639270645L364.4514601229933 279.9273639270645Q364.4514601229933 283.07656368748235 362.7994209044134 284.75441601885257Q361.1215685730433 286.43226835022267 357.94655569983513 286.43226835022267L357.94655569983513 286.43226835022267L295.32394407054255 286.43226835022267L295.32394407054255 331.78590752279774L354.04877566849825 331.78590752279774Q357.2237885417064 331.78590752279774 358.8758277602863 333.36050740300664Q360.5536800916565 334.9351072832156 360.5536800916565 338.08430704363343L360.5536800916565 338.08430704363343Q360.5536800916565 341.2593199168416 358.8758277602863 342.9371722482117Q357.2237885417064 344.5892114667916 354.04877566849825 344.5892114667916L354.04877566849825 344.5892114667916L295.32394407054255 344.5892114667916L295.32394407054255 391.801394760269L357.94655569983513 391.801394760269Q361.1215685730433 391.801394760269 362.7994209044134 393.47924709163914Q364.4514601229933 395.1570994230093 364.4514601229933 398.12560739389494L364.4514601229933 398.12560739389494Q364.4514601229933 401.27480715431284 362.7994209044134 402.95265948568294Q361.1215685730433 404.63051181705316 357.94655569983513 404.63051181705316L357.94655569983513 404.63051181705316ZM415.019348079211 410.9547244506791L415.019348079211 410.9547244506791L370.7756727566193 273.7838430829707Q370.02709248570034 271.3832235934718 370.7756727566193 269.52467947256946Q371.5242530275383 267.66613535166715 373.0988529077472 266.63361084005476Q374.67345278795614 265.60108632844236 376.6352493600197 265.60108632844236Q378.5970459320833 265.60108632844236 380.2490851506632 266.73686329121597Q381.9269374820333 267.84682714119936 382.8562095424845 270.24744663069816L382.8562095424845 270.24744663069816L426.919193075544 407.41832799840665Q427.6419602336727 409.8447606006958 426.99663241391494 411.7033047215981Q426.35130459415717 413.56184884250047 424.7767047139483 414.56856024132253Q423.2021048337394 415.601084752935 421.13705581051454 415.601084752935Q419.09781990007997 415.601084752935 417.5232200198711 414.49112090295165Q415.9486201396621 413.355343940178 415.019348079211 410.9547244506791Z " fill="#ee4e34" transform="matrix(0.8239286363008822,0,0,0.8239286363008821,0,19.36902608481239)"/><path d="M653.9109955831727 413.71775404919083L577.1580505403817 413.71775404919083Q572.9857500171044 413.71775404919083 570.6967795911396 411.3128863864684Q568.3788348559856 408.908018723746 568.3788348559856 404.73571820046857L568.3788348559856 404.73571820046857L568.3788348559856 274.58312132156436Q568.3788348559856 270.17902632477154 570.580882354382 267.89005589880685Q572.7829298527784 265.60108547284216 576.9552303760559 265.60108547284216L576.9552303760559 265.60108547284216Q581.1275308993332 265.60108547284216 583.3006040885402 267.89005589880685Q585.5026515869366 270.17902632477154 585.5026515869366 274.58312132156436L585.5026515869366 274.58312132156436L585.5026515869366 398.7090618890678L653.9109955831727 398.7090618890678Q657.6776557777982 398.7090618890678 659.763806039437 400.6793149139488Q661.8499563010757 402.6495679388298 661.8499563010757 406.2134079691293L661.8499563010757 406.2134079691293Q661.8499563010757 409.74827369023933 659.763806039437 411.7475010243098Q657.6776557777982 413.71775404919083 653.9109955831727 413.71775404919083L653.9109955831727 413.71775404919083ZM724.0288238215851 415.6010841465035L724.0288238215851 415.6010841465035Q707.9480822214534 415.6010841465035 696.3873328548723 409.2267361248297Q684.7976091791015 402.88136241234525 678.4232611574278 391.1757414998169Q672.0778874449434 379.499094896478 672.0778874449434 363.2445074412097L672.0778874449434 363.2445074412097Q672.0778874449434 347.3665860054039 678.3363382298594 335.60301647449677Q684.5947890147756 323.8104726344001 695.5470778883789 317.11740721164256Q706.499366761982 310.4533160980745 720.8995984291271 310.4533160980745L720.8995984291271 310.4533160980745Q731.0985552638053 310.4533160980745 739.240336146034 313.90125889161624Q747.3821170282629 317.349201685158 753.1190302477694 323.8104726344001Q758.8559434672759 330.27174358364226 761.8692716229762 339.45659959669047Q764.911574087866 348.6414556097387 764.911574087866 360.1152820487516L764.911574087866 360.1152820487516Q764.911574087866 363.4473276055357 763.0282439905534 365.01194030176475Q761.1449138932405 366.57655299799376 757.6100481721305 366.57655299799376L757.6100481721305 366.57655299799376L685.0004293434276 366.57655299799376L685.0004293434276 355.5083668876328L753.6405678131791 355.5083668876328L750.308522256395 358.2319519514389Q750.308522256395 346.960945676752 746.9764766996109 339.1378821956068Q743.6154568336374 331.3148187144616 737.270083121153 327.1425181911842Q730.8957350994792 322.97021766790675 721.3052387577791 322.97021766790675L721.3052387577791 322.97021766790675Q710.6716672852594 322.97021766790675 703.2542441327662 327.8668759209198Q695.8657952894625 332.76353417393295 692.099135094837 341.42685262157147Q688.3324749002115 350.09017106921004 688.3324749002115 361.56399750822294L688.3324749002115 361.56399750822294L688.3324749002115 362.8098928033683Q688.3324749002115 382.01985979595815 697.6332281500174 392.0159964663103Q706.905007090634 402.0411074458519 724.0288238215851 402.0411074458519L724.0288238215851 402.0411074458519Q731.0985552638053 402.0411074458519 738.1103380876464 400.1577773485392Q745.0931466022982 398.27444725122643 751.7572377158663 393.899326563623L751.7572377158663 393.899326563623Q754.6836429439984 392.0159964663103 757.0885106067208 392.131893703068Q759.4933782694432 392.2188166306363 760.9420937289146 393.5806091625393Q762.3908091883859 394.94240169444237 762.9123467537956 396.91265471932337Q763.4338843192054 398.9118820533938 762.5067064251436 401.2008524793585Q761.5795285310819 403.4898229053232 758.8559434672759 405.17033283830995L758.8559434672759 405.17033283830995Q751.9600578801924 410.18288832808076 742.5723817028181 412.87749908269745Q733.1847055254439 415.6010841465035 724.0288238215851 415.6010841465035ZM821.2376311521114 415.6010841465035L821.2376311521114 415.6010841465035Q810.8068798439178 415.6010841465035 802.5492017249312 411.5157065507944Q794.320497915134 407.4593032642747 789.5107625896892 400.3605975128652Q784.7300015734338 393.2618917614556 784.7300015734338 384.5116503862488L784.7300015734338 384.5116503862488Q784.7300015734338 373.2406441115619 790.4669147929403 366.77937316231976Q796.2038280124468 360.3181022130776 809.4450873120147 357.5945171492715Q822.6863466115826 354.89990639465486 845.6339994896084 354.89990639465486L845.6339994896084 354.89990639465486L855.0216756669827 354.89990639465486L855.0216756669827 365.9391181958264L845.8368196539345 365.9391181958264Q828.9447973964989 365.9391181958264 819.238403818041 367.5037308920554Q809.5609845487725 369.06834358828445 805.6784271173892 372.8350037829099Q801.8248439951956 376.5726896683459 801.8248439951956 383.46857525542947L801.8248439951956 383.46857525542947Q801.8248439951956 392.0159964663103 807.764577379028 397.43419228473306Q813.7332850720497 402.88136241234525 823.932241906728 402.88136241234525L823.932241906728 402.88136241234525Q832.2768429532828 402.88136241234525 838.6511909749568 398.9118820533938Q845.0255389966305 394.94240169444237 848.6763019544983 388.04651610735885Q852.327064912366 381.1796048294647 852.327064912366 372.1975689807425L852.327064912366 372.1975689807425L852.327064912366 348.4096611362233Q852.327064912366 335.487119237739 847.1116892582693 329.7502060182326Q841.8963136041725 324.0132927987261 829.9878725273181 324.0132927987261L829.9878725273181 324.0132927987261Q822.6863466115826 324.0132927987261 815.3848206958471 325.8966228960388Q808.0832947801116 327.77995299335157 799.9415138978827 331.952253516629L799.9415138978827 331.952253516629Q797.0440829789402 333.40096897610033 794.9579327173014 332.87943141069064Q792.8717824556627 332.35789384528096 791.5969128513279 330.6773839122942Q790.3510175561826 329.02584828849695 790.1481973918567 326.8238007901005Q789.9453772275306 324.6507276008935 791.0753752859182 322.5645773392548Q792.2343476534952 320.47842707761606 794.726138243786 319.2035574732813L794.726138243786 319.2035574732813Q803.9109942568341 314.6256166213519 812.8930301055564 312.5394663597132Q821.8460916450892 310.4533160980745 829.9878725273181 310.4533160980745L829.9878725273181 310.4533160980745Q843.1422088993179 310.4533160980745 851.6896301101988 314.7415138581096Q860.2370513210794 319.0007373089553 864.4093518443569 327.6640557565939Q868.5816523676344 336.3273742042324 868.5816523676344 349.88735090488404L868.5816523676344 349.88735090488404L868.5816523676344 406.4162281334553Q868.5816523676344 410.5885286567327 866.6113993427534 412.87749908269745Q864.6121720086828 415.1664695086621 860.8744861232469 415.1664695086621L860.8744861232469 415.1664695086621Q856.9050057642955 415.1664695086621 854.8188555026568 412.87749908269745Q852.732705241018 410.5885286567327 852.732705241018 406.4162281334553L852.732705241018 406.4162281334553L852.732705241018 390.13266636899755L854.6160353383307 390.13266636899755Q852.9355254053439 398.07162708690043 848.2416873166569 403.6926430696492Q843.5478492279699 409.3426333615874 836.6809379500758 412.47185875404546Q829.7850523629922 415.6010841465035 821.2376311521114 415.6010841465035ZM908.4213275030959 415.1664695086621L908.4213275030959 415.1664695086621Q904.2490269798186 415.1664695086621 902.0759537906115 412.87749908269745Q899.873906292215 410.5885286567327 899.873906292215 406.4162281334553L899.873906292215 406.4162281334553L899.873906292215 319.43535194679674Q899.873906292215 315.2630514235193 901.9600565538537 313.06100392512286Q904.0462068154925 310.8589564267264 908.0156871744439 310.8589564267264L908.0156871744439 310.8589564267264Q911.9851675333953 310.8589564267264 914.1582407226024 313.06100392512286Q916.3602882209987 315.2630514235193 916.3602882209987 319.43535194679674L916.3602882209987 319.43535194679674L916.3602882209987 336.3273742042324L914.2741379593601 336.3273742042324Q917.606183516144 324.0132927987261 926.9938596935183 317.349201685158Q936.3815358708925 310.6561362624005 950.1443327358702 310.2504959337485L950.1443327358702 310.2504959337485Q953.2735581283282 310.04767576942254 955.1568882256408 311.61228846565155Q957.0402183229537 313.17690116188055 957.2430384872796 316.9145870473166L957.2430384872796 316.9145870473166Q957.4458586516057 320.47842707761606 955.5915028634824 322.5645773392548Q953.7081727661696 324.6507276008935 949.7386924072182 325.05636792954544L949.7386924072182 325.05636792954544L946.4066468504341 325.46200825819744Q932.209235347615 326.7368778625322 924.5889920307959 334.5599413436774Q916.9977230231661 342.3830048248226 916.9977230231661 355.94298152547424L916.9977230231661 355.94298152547424L916.9977230231661 406.4162281334553Q916.9977230231661 410.5885286567327 914.7956755247696 412.87749908269745Q912.5936280263734 415.1664695086621 908.4213275030959 415.1664695086621ZM982.9142764291116 415.1664695086621L982.9142764291116 415.1664695086621Q978.7419759058341 415.1664695086621 976.6558256441954 412.87749908269745Q974.5696753825566 410.5885286567327 974.5696753825566 406.4162281334553L974.5696753825566 406.4162281334553L974.5696753825566 319.43535194679674Q974.5696753825566 315.2630514235193 976.6558256441954 313.06100392512286Q978.7419759058341 310.8589564267264 982.7114562647855 310.8589564267264L982.7114562647855 310.8589564267264Q986.6519623145475 310.8589564267264 988.854009812944 313.06100392512286Q991.0560573113405 315.2630514235193 991.0560573113405 319.43535194679674L991.0560573113405 319.43535194679674L991.0560573113405 337.3704493350518L988.7381125761863 334.84968443557165Q993.1422075729793 322.76739750358075 1003.051421315763 316.5958696462329Q1012.960635058547 310.4533160980745 1025.8831769570313 310.4533160980745L1025.8831769570313 310.4533160980745Q1037.9944381982116 310.4533160980745 1046.0203218436827 314.82843678567787Q1054.0462054891539 319.2035574732813 1058.0156858481052 328.0696960852458Q1061.9851662070566 336.93583469721034 1061.9851662070566 350.495811397862L1061.9851662070566 350.495811397862L1061.9851662070566 406.4162281334553Q1061.9851662070566 410.5885286567327 1059.7831187086604 412.87749908269745Q1057.5810712102639 415.1664695086621 1053.6405651605019 415.1664695086621L1053.6405651605019 415.1664695086621Q1049.4682646372246 415.1664695086621 1047.266217138828 412.87749908269745Q1045.0641696404316 410.5885286567327 1045.0641696404316 406.4162281334553L1045.0641696404316 406.4162281334553L1045.0641696404316 351.53888652868136Q1045.0641696404316 337.3704493350518 1039.5590508944406 330.79328114905195Q1034.02495783926 324.2161129630521 1021.9136965980797 324.2161129630521L1021.9136965980797 324.2161129630521Q1007.9480795687762 324.2161129630521 999.6904014497895 332.87943141069064Q991.4616976399925 341.5427498583292 991.4616976399925 355.94298152547424L991.4616976399925 355.94298152547424L991.4616976399925 406.4162281334553Q991.4616976399925 415.1664695086621 982.9142764291116 415.1664695086621Z " fill="#fcedda" transform="matrix(0.8239286363008822,0,0,0.8239286363008821,0,19.36902608481239)"/></g></svg>